<svg width="31" height="26" viewBox="0 0 31 26" fill="none" xmlns="http://www.w3.org/2000/svg">
<g clip-path="url(#clip0_2313_31540)">
<mask id="mask0_2313_31540" style="mask-type:alpha" maskUnits="userSpaceOnUse" x="0" y="0" width="31" height="26">
<g clip-path="url(#clip1_2313_31540)">
<path d="M1.55555 10.0623C2.13137 9.67791 2.80767 9.47266 3.50058 9.47266C3.96049 9.47363 4.41569 9.56485 4.84015 9.74109C5.2646 9.91734 5.64998 10.1752 5.97424 10.4998C6.5471 11.0735 6.90343 11.8265 6.98303 12.6315C7.06263 13.4364 6.86062 14.2441 6.41113 14.918C6.02725 15.4932 5.48048 15.9421 4.84008 16.2078C4.20016 16.4716 3.49592 16.5403 2.81671 16.4051C2.13751 16.2699 1.51396 15.937 1.02517 15.4485C0.535594 14.9576 0.202413 14.3338 0.0673468 13.6552C-0.0677192 12.9767 0.00133316 12.2736 0.265857 11.6339C0.530255 10.9947 0.97905 10.4478 1.55555 10.0623Z" fill="white"/>
<path d="M13.4508 23.7792C13.638 23.3451 13.7272 22.8818 13.7133 22.4163C13.7418 21.1262 14.1246 19.8626 14.8275 18.7382C15.5286 17.6157 16.5285 16.6678 17.7371 15.9796C18.1846 15.7634 18.5788 15.4676 18.8958 15.1102C19.2128 14.7528 19.4459 14.3412 19.5812 13.9003C19.7165 13.4594 19.7511 12.9984 19.6828 12.5451C19.6146 12.0918 19.445 11.6557 19.1842 11.2632C18.8359 10.7389 18.3346 10.309 17.7371 10.023C17.3946 9.80893 17.0655 9.5784 16.7518 9.3314L15.9658 8.63807C14.5253 7.2741 13.7175 5.46614 13.7075 3.58367C13.7224 3.11807 13.6336 2.65449 13.4464 2.2203C13.2591 1.78611 12.9773 1.39009 12.6174 1.0556C12.2591 0.72149 11.8297 0.455824 11.355 0.27446C10.8802 0.0930961 10.3697 -0.000247347 9.854 1.33133e-06C9.33858 0.000656037 8.82855 0.0944135 8.35407 0.275727C7.87959 0.457041 7.4503 0.722228 7.09159 1.0556C6.73234 1.39067 6.45088 1.78692 6.2637 2.22115C6.07651 2.65539 5.98735 3.11889 6.00144 3.58453C6.00985 4.18898 6.19468 4.78079 6.53738 5.30053C6.87889 5.8194 7.36648 6.24782 7.95081 6.54247C10.3168 7.891 11.9631 10.4693 11.9631 13.0052C11.9573 14.8713 11.1649 16.6658 9.74624 18.0258L7.95659 19.4575C7.37255 19.7513 6.88472 20.1795 6.54219 20.6995C6.19869 21.2186 6.01491 21.8114 6.00625 22.4163C5.99154 22.8819 6.08041 23.3454 6.26763 23.7796C6.45485 24.2138 6.73664 24.6098 7.0964 24.9444C7.45475 25.2784 7.88411 25.544 8.35887 25.7254C8.83363 25.9068 9.34408 26.0001 9.85977 26C10.3753 25.9995 10.8856 25.9058 11.3602 25.7244C11.8349 25.5431 12.2643 25.2779 12.6231 24.9444C12.9822 24.6094 13.2636 24.2133 13.4508 23.7792Z" fill="white"/>
<path d="M18.7356 2.22078C18.5484 2.65485 18.4592 3.11817 18.4731 3.58367C18.4446 4.87377 18.0618 6.13743 17.3589 7.2618C16.6578 8.38428 15.6579 9.33222 14.4493 10.0204C14.0018 10.2366 13.6076 10.5324 13.2906 10.8898C12.9736 11.2472 12.7405 11.6588 12.6052 12.0997C12.4699 12.5406 12.4353 13.0016 12.5036 13.4549C12.5718 13.9082 12.7414 14.3443 13.0022 14.7368C13.3505 15.2611 13.8518 15.691 14.4493 15.977C14.7918 16.1911 15.1209 16.4216 15.4345 16.6686L16.2206 17.3619C17.6611 18.7259 18.4689 20.5339 18.4789 22.4163C18.464 22.8819 18.5528 23.3455 18.74 23.7797C18.9273 24.2139 19.2091 24.6099 19.569 24.9444C19.9273 25.2785 20.3566 25.5442 20.8314 25.7255C21.3062 25.9069 21.8167 26.0002 22.3324 26C22.8478 25.9993 23.3578 25.9056 23.8323 25.7243C24.3068 25.543 24.7361 25.2778 25.0948 24.9444C25.4541 24.6093 25.7355 24.2131 25.9227 23.7788C26.1099 23.3446 26.199 22.8811 26.185 22.4155C26.1765 21.811 25.9917 21.2192 25.649 20.6995C25.3075 20.1806 24.8199 19.7522 24.2356 19.4575C21.8696 18.109 20.2233 15.5307 20.2233 12.9948C20.2291 11.1287 21.0215 9.33419 22.4402 7.9742L24.2298 6.54247C24.8138 6.24866 25.3017 5.82053 25.6442 5.30053C25.9877 4.7814 26.1715 4.1886 26.1801 3.58367C26.1949 3.11808 26.106 2.65455 25.9188 2.22038C25.7315 1.78621 25.4498 1.39017 25.09 1.0556C24.7316 0.721568 24.3023 0.455956 23.8275 0.274598C23.3528 0.0932402 22.8423 -0.000150245 22.3266 1.81432e-07C21.811 0.000539071 21.3008 0.0942403 20.8262 0.275557C20.3515 0.456873 19.9221 0.722123 19.5633 1.0556C19.2042 1.3906 18.9228 1.78671 18.7356 2.22078Z" fill="white"/>
<path d="M30.4104 11.4083C30.7946 11.929 30.9999 12.5409 31 13.1669C30.9994 14.0061 30.6305 14.811 29.9736 15.4061C29.6493 15.6997 29.2639 15.9329 28.8394 16.0922C28.4149 16.2515 27.9597 16.3339 27.4998 16.3345C26.8072 16.3345 26.1303 16.1488 25.5553 15.801C24.9791 15.4526 24.5305 14.9581 24.266 14.3801C24.0014 13.8013 23.9323 13.165 24.0673 12.551C24.2023 11.937 24.5355 11.3725 25.0251 10.9283C25.5131 10.4853 26.1367 10.1833 26.8162 10.0609C27.4956 9.93856 28.2002 10.0014 28.8398 10.2414C29.48 10.4817 30.0266 10.8879 30.4104 11.4083Z" fill="white"/>
</g>
</mask>
<g mask="url(#mask0_2313_31540)">
<rect width="31" height="26" fill="url(#paint0_angular_2313_31540)"/>
</g>
</g>
<defs>
<radialGradient id="paint0_angular_2313_31540" cx="0" cy="0" r="1" gradientUnits="userSpaceOnUse" gradientTransform="translate(16 13) rotate(-90) scale(18 21.4219)">
<stop offset="0.000591222" stop-color="#EC2426"/>
<stop offset="0.00291469" stop-color="#0596DA"/>
<stop offset="0.146566" stop-color="#0596DA"/>
<stop offset="0.316333" stop-color="#459E5E"/>
<stop offset="0.490675" stop-color="#459E5E"/>
<stop offset="0.502683" stop-color="#FCBD19"/>
<stop offset="0.65816" stop-color="#FCBD19"/>
<stop offset="0.870311" stop-color="#EC2426"/>
</radialGradient>
<clipPath id="clip0_2313_31540">
<rect width="31" height="26" fill="white"/>
</clipPath>
<clipPath id="clip1_2313_31540">
<rect width="31" height="26" fill="white"/>
</clipPath>
</defs>
</svg>
