<svg width="35" height="29" viewBox="0 0 35 29" fill="none" xmlns="http://www.w3.org/2000/svg">
<mask id="mask0_2313_31566" style="mask-type:alpha" maskUnits="userSpaceOnUse" x="0" y="0" width="35" height="29">
<path d="M1.73504 11.2241C2.3773 10.7953 3.13163 10.5664 3.90449 10.5664C4.41747 10.5675 4.92519 10.6692 5.39863 10.8658C5.87205 11.0624 6.3019 11.35 6.66357 11.7121C7.30253 12.352 7.69998 13.1918 7.78876 14.0897C7.87755 14.9875 7.65223 15.8884 7.15088 16.6401C6.7227 17.2816 6.11284 17.7823 5.39855 18.0787C4.68479 18.3729 3.8993 18.4495 3.14171 18.2987C2.38415 18.1479 1.68865 17.7766 1.14346 17.2318C0.597393 16.6842 0.225768 15.9884 0.0751176 15.2315C-0.0755329 14.4748 0.00148701 13.6905 0.296533 12.977C0.591438 12.2641 1.09202 11.6541 1.73504 11.2241Z" fill="white"/>
<path d="M15.0019 26.523C15.2107 26.0388 15.3102 25.522 15.2947 25.0028C15.3265 23.5638 15.7535 22.1544 16.5375 20.9003C17.3195 19.6483 18.4347 18.591 19.7828 17.8234C20.2819 17.5823 20.7216 17.2523 21.0752 16.8537C21.4288 16.455 21.6888 15.996 21.8397 15.5042C21.9906 15.0124 22.0292 14.4982 21.953 13.9926C21.8769 13.487 21.6878 13.0006 21.3969 12.5628C21.0084 11.978 20.4492 11.4985 19.7828 11.1795C19.4008 10.9407 19.0337 10.6836 18.6838 10.4081L17.8071 9.63477C16.2004 8.11342 15.2994 6.09685 15.2882 3.99717C15.3049 3.47785 15.2058 2.96078 14.997 2.47649C14.7881 1.9922 14.4738 1.55048 14.0724 1.1774C13.6727 0.804738 13.1938 0.508418 12.6643 0.306128C12.1347 0.103837 11.5653 -0.000276819 10.9901 5.52757e-07C10.4152 0.000730801 9.84633 0.105306 9.3171 0.307541C8.78788 0.509776 8.30905 0.805561 7.90895 1.1774C7.50825 1.55113 7.19431 1.9931 6.98554 2.47744C6.77675 2.96178 6.6773 3.47876 6.69302 3.99813C6.7024 4.67232 6.90855 5.33242 7.2908 5.91213C7.67171 6.49087 8.21556 6.96872 8.86731 7.29737C11.5063 8.8015 13.3426 11.6773 13.3426 14.5058C13.3361 16.5872 12.4523 18.5888 10.8699 20.1057L8.87376 21.7026C8.22233 22.0303 7.67821 22.5079 7.29616 23.0879C6.91303 23.6669 6.70804 24.3281 6.69838 25.0028C6.68197 25.5221 6.7811 26.0391 6.98992 26.5234C7.19874 27.0077 7.51305 27.4494 7.91432 27.8226C8.31402 28.1951 8.79292 28.4914 9.32246 28.6937C9.852 28.896 10.4213 29.0001 10.9965 29C11.5716 28.9994 12.1407 28.8949 12.6701 28.6926C13.1996 28.4904 13.6785 28.1946 14.0787 27.8226C14.4792 27.4489 14.7931 27.0071 15.0019 26.523Z" fill="white"/>
<path d="M20.8992 2.47702C20.6904 2.96118 20.591 3.47796 20.6065 3.99717C20.5747 5.43613 20.1477 6.84559 19.3637 8.0997C18.5817 9.3517 17.4664 10.409 16.1184 11.1766C15.6192 11.4177 15.1796 11.7477 14.826 12.1463C14.4724 12.545 14.2124 13.004 14.0615 13.4958C13.9106 13.9876 13.872 14.5018 13.9482 15.0074C14.0242 15.513 14.2134 15.9994 14.5043 16.4372C14.8928 17.022 15.4519 17.5015 16.1184 17.8205C16.5004 18.0593 16.8675 18.3164 17.2172 18.5919L18.0941 19.3652C19.7008 20.8866 20.6018 22.9032 20.6129 25.0028C20.5963 25.5221 20.6954 26.0392 20.9042 26.5235C21.1131 27.0078 21.4274 27.4495 21.8288 27.8226C22.2284 28.1952 22.7073 28.4916 23.2369 28.6938C23.7665 28.8962 24.3359 29.0002 24.9111 29C25.4859 28.9992 26.0548 28.8947 26.584 28.6925C27.1133 28.4903 27.5921 28.1945 27.9922 27.8226C28.393 27.4488 28.7068 27.0069 28.9156 26.5225C29.1244 26.0382 29.2238 25.5212 29.2082 25.0019C29.1987 24.3277 28.9926 23.6676 28.6103 23.0879C28.2294 22.5091 27.6856 22.0313 27.0339 21.7026C24.3949 20.1985 22.5586 17.3227 22.5586 14.4942C22.5651 12.4128 23.4489 10.4112 25.0313 8.8943L27.0274 7.29737C27.6788 6.96966 28.223 6.49213 28.605 5.91213C28.9881 5.3331 29.1931 4.6719 29.2027 3.99717C29.2192 3.47786 29.1201 2.96084 28.9113 2.47658C28.7024 1.99231 28.3882 1.55057 27.9868 1.1774C27.5871 0.804826 27.1083 0.508566 26.5787 0.306282C26.0492 0.103999 25.4798 -0.000167581 24.9046 2.02367e-07C24.3295 0.000601271 23.7604 0.105114 23.2311 0.307352C22.7016 0.509589 22.2226 0.805445 21.8224 1.1774C21.4219 1.55105 21.108 1.99287 20.8992 2.47702Z" fill="white"/>
<path d="M33.9196 12.7232C34.3481 13.3039 34.5771 13.9864 34.5772 14.6847C34.5765 15.6207 34.1651 16.5185 33.4324 17.1822C33.0707 17.5097 32.6408 17.7698 32.1673 17.9475C31.6938 18.1252 31.1861 18.2171 30.6731 18.2178C29.9006 18.2178 29.1456 18.0106 28.5043 17.6227C27.8616 17.2341 27.3612 16.6825 27.0662 16.0379C26.7711 15.3923 26.694 14.6825 26.8446 13.9977C26.9952 13.3129 27.3668 12.6832 27.9129 12.1878C28.4572 11.6937 29.1528 11.3568 29.9107 11.2203C30.6685 11.0838 31.4544 11.1539 32.1678 11.4216C32.8818 11.6896 33.4915 12.1427 33.9196 12.7232Z" fill="white"/>
</mask>
<g mask="url(#mask0_2313_31566)">
<path d="M34.5769 0H0V29H34.5769V0Z" fill="url(#paint0_radial_2313_31566)"/>
</g>
<defs>
<radialGradient id="paint0_radial_2313_31566" cx="0" cy="0" r="1" gradientUnits="userSpaceOnUse" gradientTransform="translate(17.8462 14.5) rotate(-90) scale(21.1923 22.5509)">
<stop offset="0.00291469" stop-color="#0596DA"/>
<stop offset="0.143349" stop-color="#0596DA"/>
<stop offset="0.390398" stop-color="#459E5E"/>
<stop offset="0.563326" stop-color="#FCBD19"/>
<stop offset="0.602235" stop-color="#FCBD19"/>
<stop offset="0.740385" stop-color="#EC2426"/>
</radialGradient>
</defs>
</svg>
